<svg xmlns="http://www.w3.org/2000/svg" viewBox="0 0 830.7 47.6"><path d="M3 44.6V3h13.6l51 35.5L118.9 3h13.6v41.6h-8.9V10.1L74.1 44.6H61.5L11.9 10.1v34.5H3zm204.2-18.3v18.3h-9.8V26.3L142.8 3h19.9l39.4 16.9L243.7 3h18.4l-54.9 23.3zM457.2 3l-37 41.6H408L376.6 8l-32.7 36.6h-12L295.1 3h12l31 36.1L369.9 3h13.7l30.9 36 30.8-36h11.9zm10.2 41.6V3h8.9v16.4H566V3h8.9v41.6H566V27.3h-89.6v17.4l-9-.1zm123.5 0V3h8.9v41.6h-8.9zm67.7 0V10.4h-47.4V3h104v7.4h-47.7v34.2h-8.9zm67.4 0V3h101.7v7.4h-92.9v9.5h92.9v7.3h-92.9v10.2h92.9v7.3H726v-.1z" stroke="#000" stroke-width="6" stroke-miterlimit="10"/></svg>