<svg id="Layer_1" xmlns="http://www.w3.org/2000/svg" width="830.6758" height="195.675" viewBox="0 0 830.6758 195.675"><style>.st2{stroke:#000;stroke-width:6;stroke-miterlimit:10}</style><path d="M325.5611 0h190.3404v119.4894H325.5611z"/><path fill="#fff" d="M496.7526 111.9574V8.8085h-22.468l-53.6171 41.617-53.8724-41.617h-22.7234v103.149h24.766V34.5956l51.8298 40.297 52.085-40.297v77.3617z"/><path fill="none" stroke="#fff" stroke-width="6" stroke-miterlimit="10" d="M364.4973 70.5745l26.5532 28.085 29.3617-28.085 28.851 28.085 27.3192-25.7872"/><path class="st2" d="M3 192.675v-41.6328h13.6465l51.0361 35.5127 51.2295-35.5127h13.6475v41.6328h-8.9268v-34.523l-49.5332 34.523H61.5391l-49.6123-34.523v34.523H3zM207.2139 174.3469v18.3281h-9.796V174.347L142.75 151.0422h19.9395l39.4228 16.8916 41.6094-16.8916h18.3974L207.214 174.347zM457.247 151.0422l-36.9706 41.6328h-12.1621l-31.5059-36.6103-32.6963 36.6103h-11.959l-36.8926-41.6328h12.0323l30.998 36.0527 31.7832-36.0527h13.666l30.919 36.0488 30.8496-36.0488h11.9385zM467.4375 192.675v-41.6328h8.9268v16.3535h89.5859v-16.3535h8.9268v41.6328h-8.9268v-17.3799h-89.586v17.38h-8.9267zM590.913 192.675v-41.6328h8.9268v41.6328h-8.9267zM658.6172 192.675v-34.207h-47.4004v-7.4258h104.043v7.4258h-47.7159v34.207h-8.9267zM726.003 192.675v-41.6328h101.6728v7.4258h-92.9043v9.4805h92.9043v7.2675h-92.9043v10.1914h92.9043v7.2676H726.0029z"/></svg>