<svg width="50" height="50" viewBox="0 0 50 50" fill="none" xmlns="http://www.w3.org/2000/svg"><g clip-path="url(#clip0)" fill="#5591B3"><path d="M43.9889 8.729a.7426.7426 0 0 0-1.3355-.6493l-2.8412 5.8454-1.2875-2.3171a.7424.7424 0 0 0-1.0097-.2884.7429.7429 0 0 0-.2884 1.0098l1.9802 3.5644a.7425.7425 0 0 0 .6493.3819c.0064 0 .0133 0 .0202-.0004a.743.743 0 0 0 .6477-.4177l3.4649-7.1285z"/><path d="M45.2546 24.382a.7428.7428 0 0 0-.7386-.6637h-6.5189l-.462-4.4484a7.9614 7.9614 0 0 0 2.8981.5452c4.412 0 8.0017-3.5893 8.0017-8.0014 0-4.4124-3.5897-8.0017-8.0017-8.0017-4.4121 0-8.0017 3.5893-8.0017 8.0017 0 .0183.0011.037.0015.0557h-2.4742v-3.064C29.9588 3.9502 26.0087 0 21.1533 0c-4.8553 0-8.8055 3.9501-8.8055 8.8055v3.0635h-6.137a.7427.7427 0 0 0-.7386.6661l-.9361 9.0092a.7424.7424 0 0 0 .7393.8194.7425.7425 0 0 0 .7378-.6657l.867-8.3435h5.4676v2.8416c0 .41.3327.7423.7428.7423.41 0 .7427-.3323.7427-.7423v-2.8416h14.6404v2.8416c0 .41.3323.7423.7427.7423a.7423.7423 0 0 0 .7424-.7423v-2.8416h2.623c.4131 2.1084 1.6559 3.9234 3.3744 5.0877l.5478 5.2761H23.742a.7428.7428 0 0 0-.7386.6637l-2.5757 24.1329H3.2265l2.4948-24.01a.7422.7422 0 0 0-.6618-.8156c-.4078-.042-.7729.254-.8152.6618L1.664 49.1806A.7428.7428 0 0 0 2.403 50h35.0253a.7426.7426 0 1 0 0-1.4851H21.9216l2.4879-23.3116h19.439l2.4883 23.3116h-6.4331a.7423.7423 0 0 0-.7424.7424c0 .4101.3323.7427.7424.7427h7.259a.7442.7442 0 0 0 .5523-.246.744.744 0 0 0 .1862-.5753L45.2546 24.382zM13.8329 11.869V8.8055c0-4.0364 3.2841-7.3204 7.3204-7.3204 4.0363 0 7.3204 3.284 7.3204 7.3204v3.0635H13.8329zm20.0836-.0556c0-3.5931 2.9232-6.5163 6.5167-6.5163 3.593 0 6.5162 2.9232 6.5162 6.5163 0 3.5934-2.9232 6.5166-6.5162 6.5166-3.5935 0-6.5167-2.9232-6.5167-6.5166z"/><path d="M29.3136 28.2397a.7425.7425 0 0 0-.7423.7428v4.8153c0 3.0647 2.4933 5.558 5.5576 5.558 3.0647 0 5.558-2.4933 5.558-5.558v-4.8153a.7425.7425 0 0 0-1.485 0v4.8153c0 2.2457-1.8273 4.0725-4.073 4.0725-2.2457 0-4.0725-1.8268-4.0725-4.0725v-4.8153a.743.743 0 0 0-.7428-.7428z"/></g><defs><clipPath id="clip0"><path fill="#fff" d="M0 0h50v50H0z"/></clipPath></defs></svg>