<svg width="70" height="70" viewBox="0 0 70 70" fill="none" xmlns="http://www.w3.org/2000/svg"><path d="M61.8333 2.3333h-7V7h-4.6666V2.3333h-7V7H38.5V2.3333h-7V7h-4.6667V2.3333h-7V7h-4.6666V2.3333h-7V7H0v60.6666h70V7h-8.1667V2.3333zm-4.6666 2.3333H59.5v7h-2.3333v-7zm-11.6667 0h2.3333v7H45.5v-7zm-11.6667 0h2.3334v7h-2.3334v-7zm-11.6666 0H24.5v7h-2.3333v-7zm-11.6667 0h2.3333v7H10.5v-7zm57.1667 60.6667H2.3333V25.6666h65.3334v39.6667zm0-56v14H2.3333v-14h5.8334V14h7V9.3333h4.6666V14h7V9.3333H31.5V14h7V9.3333h4.6667V14h7V9.3333h4.6666V14h7V9.3333h5.8334z" fill="#5591B3"/><path d="M24.4999 30.3333H12.8333V42h11.6666V30.3333zm-2.3333 9.3333h-7v-7h7v7zM40.8334 30.3333H29.1667V42h11.6667V30.3333zm-2.3333 9.3333h-7v-7h7v7zM57.1667 30.3333H45.5V42h11.6667V30.3333zm-2.3334 9.3333h-7v-7h7v7zM40.8334 46.6667H29.1667v11.6666h11.6667V46.6667zM38.5001 56h-7v-7h7v7zM57.1667 46.6667H45.5v11.6666h11.6667V46.6667zM54.8333 56h-7v-7h7v7zM17.5001 59.5c5.1463 0 9.3333-3.1394 9.3333-7a6.0158 6.0158 0 0 0-2.0998-4.4171l2.9247-2.9247-1.6498-1.6497-3.2271 3.226A11.5318 11.5318 0 0 0 17.5001 45.5c-5.1463 0-9.3333 3.1394-9.3333 7s4.187 7 9.3333 7zm0-11.6667a9.5437 9.5437 0 0 1 3.5222.6614l-3.5222 3.5222-1.5085-1.5084-1.6497 1.6497 3.1582 3.1582 5.5838-5.5838A3.7562 3.7562 0 0 1 24.5001 52.5c0 2.5293-3.2061 4.6667-7 4.6667-3.794 0-7-2.1374-7-4.6667 0-2.5293 3.206-4.6667 7-4.6667zM7 18.6666h9.3333V21H7v-2.3334zM21 18.6666h2.3333V21H21v-2.3334z" fill="#5591B3"/></svg>