<svg width="55" height="55" viewBox="0 0 55 55" fill="none" xmlns="http://www.w3.org/2000/svg"><path d="M49.091 27.4931a.8583.8583 0 0 0 .5957-.3577.8597.8597 0 0 0 .1365-.6813l-3.4375-15.4687a1.5115 1.5115 0 0 0-.1624-.3283.8642.8642 0 0 0-.1719-.1719.87.87 0 0 0-.0945-.0524 1.8532 1.8532 0 0 0-.2398-.0997l-7.9045-1.5847V6.0156a.8596.8596 0 0 0-.8594-.8594H24.9219a.8591.8591 0 0 0-.8593.8594v2.7328l-7.9063 1.5813a1.8519 1.8519 0 0 0-.2397.0997.8388.8388 0 0 0-.0946.0524 2.1697 2.1697 0 0 0-.2183.2252.8459.8459 0 0 0-.1177.2784l-3.4375 15.4687a.8602.8602 0 0 0 .1365.6813.858.858 0 0 0 .5957.3577l6.1256.7657v20.7256a.8594.8594 0 0 0 .8594.8594h22.3437a.8591.8591 0 0 0 .8594-.8594V28.2588l6.1222-.7657zm-5.8919-.9951l2.3702-11.2578 2.371 10.6691-4.7412.5887zM25.7813 6.875h10.3125v1.7188H25.7813V6.875zm-11.8465 19.03l2.3711-10.6691L18.676 26.498l-4.7412-.593zm27.3153 22.22h-20.625V27.5a.8694.8694 0 0 0-.0181-.177l-3.2587-15.4791 7.6596-1.5314h11.8594l7.6587 1.5314-3.2579 15.4791a.8693.8693 0 0 0-.018.177v20.625zM9.4531 1.7188h-6.875a.8593.8593 0 0 0-.8594.8593V52.422a.8591.8591 0 0 0 .8594.8593h6.875a.8592.8592 0 0 0 .8594-.8593V2.5781a.8592.8592 0 0 0-.8594-.8594zM3.4375 51.5624V3.4375h5.1563v2.5781H5.1563v1.7188h3.4375V9.453H6.875v1.7188h1.7188v1.7187H5.1563v1.7188h3.4375v1.7187H6.875v1.7188h1.7188v1.7187H5.1563v1.7188h3.4375v1.7187H6.875v1.7188h1.7188v1.7187H5.1563v1.7188h3.4375v1.7187H6.875v1.7188h1.7188v1.7187H5.1563v1.7188h3.4375v1.7187H6.875v1.7188h1.7188v1.7187H5.1563v1.7188h3.4375v1.7187H6.875v1.7188h1.7188v1.7187H5.1563v1.7188h3.4375v2.5781H3.4375z" fill="#5591B3"/><path d="M46.4062 6.875h5.1563v41.25h-5.1563v1.7188h6.875V5.1562h-6.875V6.875zM37.8125 12.0312h-1.7187v14.6094h-13.75v1.7188h13.75v18.0468h1.7187V28.3594h1.7187v-1.7188h-1.7187V12.0312z" fill="#5591B3"/><path d="M30.9375 23.2031h3.4375v1.7188h-3.4375v-1.7188zM27.5 23.2031h1.7188v1.7188H27.5v-1.7188zM32.6562 42.9688h1.7188v3.4374h-1.7188v-3.4374zM32.6562 39.5312h1.7188V41.25h-1.7188v-1.7188zM41.25 5.1563h3.4375V6.875H41.25V5.1562z" fill="#5591B3"/></svg>