<svg width="75" height="75" viewBox="0 0 75 75" fill="none" xmlns="http://www.w3.org/2000/svg"><path d="M71.3367 8.9275l-4.9422-3.954-.0096-.0113-1.5884-1.5885a3.4946 3.4946 0 0 0-2.4857-1.03H45.5017a3.4936 3.4936 0 0 0-2.4856 1.03l-1.5885 1.5885-.0096.0113-4.9422 3.9552a3.4958 3.4958 0 0 0-1.3195 2.7443v26.9989a3.5193 3.5193 0 0 0 3.5156 3.5156h30.4687a3.5193 3.5193 0 0 0 3.5157-3.5156V11.673a3.5006 3.5006 0 0 0-1.3196-2.7455zM60.49 4.6875h1.8208c.3106.001.6083.1243.8285.3434l1.5885 1.5884a1.18 1.18 0 0 1 .2003 1.3905l-4.8523 8.8966a1.1712 1.1712 0 0 1-1.7613.3536l-2.9365-2.3483L60.49 4.6875zm-2.6206 0l-3.9631 7.9262-3.9631-7.9262h7.9262zM43.0847 6.6193l1.5885-1.5884a1.1798 1.1798 0 0 1 .8285-.3434h1.8207l5.1121 10.2242L49.498 17.26a1.1711 1.1711 0 0 1-1.7613-.3536l-4.8522-8.8978a1.1777 1.1777 0 0 1 .2002-1.3893zM37.5 38.6719V11.673a1.1632 1.1632 0 0 1 .4406-.9144l2.6634-2.1308a3.453 3.453 0 0 0 .2228.5034l4.8523 8.8967a3.516 3.516 0 0 0 2.3939 1.7642 3.516 3.516 0 0 0 2.8899-.701l1.7715-1.418v22.1707H38.6719A1.1726 1.1726 0 0 1 37.5 38.6719zm32.8125 0a1.1726 1.1726 0 0 1-1.1719 1.1719H55.0781V17.6731l1.7716 1.4179a3.517 3.517 0 0 0 2.8897.7004 3.5185 3.5185 0 0 0 2.394-1.7635l4.8523-8.8955a3.447 3.447 0 0 0 .2232-.5048l2.663 2.1299a1.167 1.167 0 0 1 .4406.9155v26.9989z" fill="#5591B3"/><path d="M58.5938 25.7812c.6472 0 1.1718-.5246 1.1718-1.1718s-.5246-1.1719-1.1718-1.1719c-.6473 0-1.1719.5247-1.1719 1.1719 0 .6472.5246 1.1718 1.1719 1.1718zM58.5938 33.9844c.6472 0 1.1718-.5247 1.1718-1.1719 0-.6472-.5246-1.1719-1.1718-1.1719-.6473 0-1.1719.5247-1.1719 1.1719 0 .6472.5246 1.1719 1.1719 1.1719zM60.9375 46.875h-56.25V18.75h28.125v-2.3438H4.6875V5.8594a1.1727 1.1727 0 0 1 1.1719-1.1719h26.9531V2.3437H5.8594a3.5195 3.5195 0 0 0-3.5156 3.5157V55.078a3.5195 3.5195 0 0 0 3.5156 3.5157h8.3778l-1.3729 1.0986a6.1464 6.1464 0 0 0-2.3174 4.8225v1.1101a3.5157 3.5157 0 1 0 0 7.0312h21.0937a3.5152 3.5152 0 0 0 2.4859-1.0297 3.5152 3.5152 0 0 0 0-4.9718 3.5156 3.5156 0 0 0-2.4859-1.0297h-7.0312a3.8199 3.8199 0 0 1 1.379-2.9434l4.9056-4.0878h28.8716a3.5198 3.5198 0 0 0 3.5156-3.5157V44.5312h-2.3437v2.3438zM31.6406 67.9688a1.1719 1.1719 0 1 1 0 2.3437H10.5469a1.1722 1.1722 0 0 1-1.1719-1.1719 1.1719 1.1719 0 0 1 1.1719-1.1718h21.0937zm-7.1537-7.0885a6.1644 6.1644 0 0 0-2.2213 4.7447h-9.375v-1.1101a3.8128 3.8128 0 0 1 1.4385-2.9926l3.661-2.9285h9.2408l-2.744 2.2865zM59.7656 56.25H5.8594a1.1724 1.1724 0 0 1-1.1719-1.1719v-5.8593h56.25v5.8593a1.1722 1.1722 0 0 1-.3435.8284 1.1722 1.1722 0 0 1-.8284.3435z" fill="#5591B3"/><path d="M32.8125 53.9062c.6472 0 1.1719-.5246 1.1719-1.1718s-.5247-1.1719-1.1719-1.1719c-.6472 0-1.1719.5247-1.1719 1.1719 0 .6472.5247 1.1718 1.1719 1.1718zM13.5469 35.6406v2.3438h2.3437v-2.3438a3.5192 3.5192 0 0 1 1.0309-2.4847 3.5192 3.5192 0 0 1 2.4847-1.0309h3.0304l-1.5152 1.5153 1.6571 1.657 4.3442-4.3442-4.3441-4.3441-1.6571 1.657 1.5151 1.5153h-3.0304a5.8658 5.8658 0 0 0-4.1411 1.7182 5.8658 5.8658 0 0 0-1.7182 4.1411zM25.7812 9.375c.6473 0 1.1719-.5247 1.1719-1.1719 0-.6472-.5246-1.1718-1.1719-1.1718-.6472 0-1.1718.5246-1.1718 1.1718s.5246 1.1719 1.1718 1.1719zM30.4688 9.375c.6472 0 1.1718-.5247 1.1718-1.1719 0-.6472-.5246-1.1718-1.1718-1.1718-.6473 0-1.1719.5246-1.1719 1.1718s.5246 1.1719 1.1719 1.1719zM7.0313 10.5469a3.5154 3.5154 0 0 0 4.2014 3.448 3.515 3.515 0 0 0 2.7622-2.7622A3.515 3.515 0 0 0 12.5 7.6237a3.5154 3.5154 0 0 0-1.9531-.5925 3.5195 3.5195 0 0 0-3.5157 3.5157zm4.6874 0a1.172 1.172 0 1 1-1.8229-.9744 1.1718 1.1718 0 0 1 .6511-.1975 1.1727 1.1727 0 0 1 1.1718 1.1719zM21.0938 11.7188H18.75v2.3437h2.3438v-2.3437zM31.6406 11.7188h-8.2031v2.3437h8.2031v-2.3437z" fill="#5591B3"/></svg>