<svg width="70" height="70" viewBox="0 0 70 70" fill="none" xmlns="http://www.w3.org/2000/svg"><g clip-path="url(#clip0)" fill="#5591B3"><path d="M48.5487 20.3223c-3.736 0-6.774 3.0381-6.774 6.7741 0 3.736 3.038 6.774 6.774 6.774s6.7741-3.038 6.7741-6.774-3.0381-6.7741-6.7741-6.7741zm0 11.2901c-2.4906 0-4.516-2.0254-4.516-4.516 0-2.4907 2.0254-4.5161 4.516-4.5161 2.4907 0 4.5161 2.0254 4.5161 4.5161 0 2.4906-2.0254 4.516-4.5161 4.516zM48.5487 39.5155c-3.736 0-6.774 3.0381-6.774 6.7741 0 3.736 3.038 6.7741 6.774 6.7741s6.7741-3.0381 6.7741-6.7741c0-3.736-3.0381-6.7741-6.7741-6.7741zm1.129 11.1297v-2.0976h-2.258v2.0976a4.5092 4.5092 0 0 1-3.2266-3.2266h2.0976v-2.258h-2.0976a4.5092 4.5092 0 0 1 3.2266-3.2266v2.0976h2.258V41.934a4.5094 4.5094 0 0 1 3.2267 3.2266h-2.0976v2.258h2.0976a4.5094 4.5094 0 0 1-3.2267 3.2266z"/><path d="M63.226 19.1932v3.3871h-3.3871v-5.6451c0-2.7255-1.9432-5.0061-4.516-5.5309V0h-6.7741v2.258h-4.516V0h-6.7741v2.258h-4.5161V0h-6.7741v11.2901h-5.645v-2.258c0-1.2453-1.0127-2.258-2.2581-2.258h-9.032c-1.2454 0-2.2581 1.0127-2.2581 2.258v2.258h-3.387c-1.8672 0-3.387 1.5199-3.387 3.3871v18.0642c0 1.4697.947 2.7117 2.258 3.1792v4.7239h4.516v6.7741h2.258v5.6451h2.2581v-5.6451h2.258v-2.258h4.516v1.129h2.2581v-4.5161h-2.2581v1.129h-4.516v-2.258h4.516v-4.5161h1.1291c1.8671 0 3.387-1.5198 3.387-3.387v-2.258h11.2901v24.8383H2.2593c-1.2454 0-2.258 1.0127-2.258 2.258v4.5161c0 1.2453 1.0126 2.258 2.258 2.258h4.516v2.2591c0 1.8672 1.5199 3.3871 3.387 3.3871l46.2896-.0011c1.8672 0 3.387-1.5199 3.387-3.3871V33.8704h3.3871v3.3871h6.7741V19.1932H63.226zM53.0649 2.258v9.0321h-2.2581v-9.032h2.2581zm-4.5161 9.0321h-4.516v-2.258h4.516v2.258zm0-6.774v2.258h-4.516V4.516h4.516zm-6.7741-2.258v9.032h-2.258v-9.032h2.258zm-4.516 9.032h-4.5161v-2.258h4.5161v2.258zm0-6.774v2.258h-4.5161V4.516h4.5161zm-9.0321-2.258h2.258v9.032h-2.258v-9.032zm-3.3871 11.2901v10.1611h-2.258V13.5482h2.258zM9.0333 9.0322h9.0321V11.29h-9.032v-2.258zm6.7741 19.1931h-2.258v-9.0321h2.258v9.0321zM2.2593 14.6772c0-.623.5071-1.129 1.129-1.129h12.4191v3.387h-4.516v13.5482h4.516v3.387H3.3883c-.6219 0-1.129-.5061-1.129-1.129V14.6772zm9.0321 30.4834h-2.258v-4.5161h2.258v4.5161zm4.516-6.7741H4.5173v-2.2581h11.2901v2.2581zm4.5161-5.6451c0 .6229-.5072 1.129-1.129 1.129h-1.1291V13.5482h2.2581v19.1932zm15.8062-2.0502c1.3109.4675 2.258 1.7095 2.258 3.1792v21.4513h-2.258V30.6912zM2.2593 57.5797h40.6444l.0011 4.5161H2.2592v-4.5161zm55.3216 9.0321c0 .623-.5072 1.129-1.129 1.129l-46.2896.0011c-.6218 0-1.129-.5055-1.129-1.129v-2.2591h33.8704c1.2454 0 2.2581-1.0127 2.2581-2.258v-4.5161c0-1.2453-1.0127-2.258-2.2581-2.258h-2.258V33.8704c0-3.1125-2.5326-5.6451-5.6451-5.6451H22.5815v-2.258h4.516V13.5482h27.0964c1.8672 0 3.387 1.5198 3.387 3.387v49.6766zm2.258-34.9994v-6.7741h3.3871v6.7741h-3.3871zm7.9031 3.387h-2.258V21.4513h2.258v13.5481z"/><path d="M47.4197 25.9673h2.258v2.258h-2.258v-2.258z"/></g><defs><clipPath id="clip0"><path fill="#fff" d="M0 0h70v70H0z"/></clipPath></defs></svg>