<svg width="70" height="70" viewBox="0 0 70 70" fill="none" xmlns="http://www.w3.org/2000/svg"><g clip-path="url(#clip0)" fill="#5591B3"><path d="M39.6884 35.073h-.0118c-.6052 0-1.0902.4907-1.0902 1.0961s.4966 1.096 1.102 1.096c.6054 0 1.096-.4906 1.096-1.096 0-.6054-.4908-1.0961-1.096-1.0961zM39.7001 51.4405h-.0118c-.6052 0-1.0902.4907-1.0902 1.0961 0 .6052.4966 1.096 1.102 1.096.6052 0 1.0961-.4906 1.0961-1.096 0-.6054-.4907-1.0961-1.0961-1.0961zM39.6884 26.8892h-.0118c-.6052 0-1.0902.4907-1.0902 1.0961s.4966 1.0961 1.102 1.0961c.6054 0 1.096-.4907 1.096-1.0961s-.4908-1.0961-1.096-1.0961zM39.6884 43.2567h-.0118c-.6052 0-1.0902.4907-1.0902 1.0961s.4966 1.0961 1.1018 1.0961c.6053 0 1.0961-.4907 1.0961-1.0961s-.4907-1.0961-1.0959-1.0961z"/><path d="M65.3003 52.8424l-1.0168-37.6221c-.0897-3.3203-2.2518-6.3019-5.3797-7.4191L47.4016 3.6933 45.265.4881a1.0958 1.0958 0 0 0-.7677-.4785 1.0855 1.0855 0 0 0-.1442-.0085V0H25.6474v.001c-.048 0-.096.0021-.1442.0086a1.096 1.096 0 0 0-.7677.4785l-2.1367 3.205-11.5026 4.1082c-3.128 1.1173-5.29 4.0987-5.3796 7.419L4.6998 52.8424c-.0254.9425.5369 1.7989 1.4048 2.1552l-.2078 3.6364c-.0568.9903.528 1.8928 1.4548 2.2461l6.6821 2.5463c.0423.9837.7189 1.836 1.6774 2.0916l16.6687 4.4451a1.0974 1.0974 0 0 0 .8912-.1477 1.0962 1.0962 0 0 0 .4777-.7665l1.2517-9.3884 1.2517 9.3884a1.0963 1.0963 0 0 0 1.3688.9142l16.6696-4.4453c.9584-.2555 1.6351-1.1079 1.6774-2.0918l6.6809-2.5458a2.2567 2.2567 0 0 0 1.4548-2.2459l-.2078-3.6364c.8676-.3564 1.43-1.2128 1.4045-2.1555zm-19.9136-48.22l-4.7745 7.6389a.0682.0682 0 0 1-.0495.0334.0672.0672 0 0 1-.0578-.0149L36.7078 9.242l7.4265-6.4982 1.2524 1.8786zM25.8663 2.7438l7.4265 6.4982-3.7971 3.0377c-.0069.0056-.0254.0207-.0578.0149a.0682.0682 0 0 1-.0496-.0333l-4.7745-7.6388 1.2525-1.8787zM14.0295 61.079l-5.8974-2.2473a.0724.0724 0 0 1-.0469-.0724l.1686-2.9523 5.7757 2.1664v3.1056zm19.8749-9.7833h-.0002l-2.1638 16.2279-15.4644-4.1238a.0733.0733 0 0 1-.0544-.0706V20.9707c0-.6053-.4907-1.0961-1.0961-1.0961-.6052 0-1.096.4907-1.096 1.0961v34.6614L6.9383 52.972a.0727.0727 0 0 1-.0473-.0704l1.0168-37.6221c.0655-2.4229 1.6432-4.5986 3.9257-5.4139l11.0138-3.9335 4.6819 7.4912a2.2666 2.2666 0 0 0 1.9202 1.0646 2.267 2.267 0 0 0 1.4156-.4963l3.0392-2.4314v39.7355h.0002zm1.0959-43.4724L28.5646 2.192h12.8715l-6.4358 5.6313zM61.868 58.8316l-5.894 2.246.003-3.1068 5.7691-2.1641.1687 2.9524a.0725.0725 0 0 1-.0468.0725zm1.1938-5.8595l-7.0824 2.6567.0339-34.657c.0005-.6053-.4898-1.0965-1.095-1.097h-.001c-.6048 0-1.0954.49-1.096 1.0949L53.78 63.3291a.0729.0729 0 0 1-.0543.0704l-15.4655 4.1241-2.1638-16.23V11.5601l3.0392 2.4314a2.2682 2.2682 0 0 0 1.7954.4642 2.2668 2.2668 0 0 0 1.5404-1.0324l4.682-7.4912 11.0133 3.9334c2.2827.8152 3.8603 2.991 3.9257 5.4139l1.0168 37.622a.0736.0736 0 0 1-.0474.0707z"/><path d="M29.1547 19.8748h-9.3528c-.6053 0-1.0961.4906-1.0961 1.096v8.1837c0 1.8937 1.5406 3.4343 3.4342 3.4343h4.6765c1.8937 0 3.4342-1.5406 3.4342-3.4343v-8.1837c0-.6054-.4908-1.096-1.096-1.096zm-1.0961 9.2796c0 .6849-.5573 1.2422-1.2422 1.2422H22.14c-.6849 0-1.2422-.5573-1.2422-1.2422v-2.6448a3.4144 3.4144 0 0 0 1.2422.2335h4.6765c.4379 0 .8567-.0833 1.2422-.2335v2.6448h-.0001zm0-5.8454c0 .6849-.5573 1.2422-1.2422 1.2422H22.14c-.6849 0-1.2422-.5573-1.2422-1.2422v-1.2422h7.1608v1.2422zM39.6764 20.8977c.6053 0 1.0961-.4907 1.0961-1.0961 0-.6053-.4908-1.096-1.0961-1.096-.6054 0-1.0961.4907-1.0961 1.096 0 .6054.4907 1.0961 1.0961 1.0961z"/></g><defs><clipPath id="clip0"><path fill="#fff" d="M0 0h70v70H0z"/></clipPath></defs></svg>