<svg width="50" height="50" viewBox="0 0 50 50" fill="none" xmlns="http://www.w3.org/2000/svg"><path fill-rule="evenodd" clip-rule="evenodd" d="M37.2435.7l3.9158 4.1398 8.1406 3.131V49.3h-48.6V7.9709l8.1407-3.1311L12.7564.7h24.4871zm2.1354 4.4837l-3.0501-3.2244-9.2057 9.2992 5.1759 5.8125 7.0799-11.8873zm-16.5021 6.0744l-9.2057-9.2987-3.0501 3.2239 7.0799 11.8877 5.1759-5.8129zM2.2296 47.7703h22.0055v-35.737l-6.7799 7.6144L9.468 6.2374 2.2296 9.0212v38.7491zM33.9087 2.2296H16.0912L25 11.2282l8.9087-8.9986zm-8.1439 45.5407h22.0055V9.0213l-7.2384-2.784-7.9872 13.4104-6.7799-7.6144v35.737z" fill="#5591B3"/><path fill-rule="evenodd" clip-rule="evenodd" d="M40.9343 26.9367h-8.2359v5.0945c0 2.2714 1.8465 4.118 4.118 4.118 2.2714 0 4.1179-1.8466 4.1179-4.118v-5.0945zm-4.1179 10.7422c-3.1134 0-5.6477-2.5343-5.6477-5.6477V25.407H42.464v6.6242c0 3.1134-2.5343 5.6477-5.6476 5.6477zM19.9054 24.3164a.7647.7647 0 0 1-.7648.7648.7648.7648 0 1 1 .7648-.7648zM19.9054 30.1757a.7648.7648 0 1 1-.7648-.7648.7647.7647 0 0 1 .7648.7648zM19.9054 36.0351a.7648.7648 0 1 1-.7648-.7648.7647.7647 0 0 1 .7648.7648zM19.9054 41.8945a.7647.7647 0 0 1-.7648.7648.7648.7648 0 1 1 .7648-.7648z" fill="#5591B3"/></svg>