<svg width="82" height="82" viewBox="0 0 82 82" fill="none" xmlns="http://www.w3.org/2000/svg"><path d="M29.2029 52.875h-.0781v-.0781c0-.8625-.6995-1.5625-1.5625-1.5625s-1.5625.7-1.5625 1.5625v.0781h-.0781c-.8631 0-1.5625.7001-1.5625 1.5625 0 .863.6994 1.5625 1.5625 1.5625h.0781v.0787c0 .8625.6995 1.5625 1.5625 1.5625s1.5625-.7 1.5625-1.5625V56h.0781c.8631 0 1.5625-.6995 1.5625-1.5625 0-.8624-.6994-1.5625-1.5625-1.5625zM29.1248 68.5h.0781c.8631 0 1.5625.7001 1.5625 1.5625 0 .863-.6994 1.5625-1.5625 1.5625h-.0781v.0781c0 .8631-.6995 1.5625-1.5625 1.5625s-1.5625-.6994-1.5625-1.5625v-.0781h-.0781c-.8631 0-1.5625-.6995-1.5625-1.5625 0-.8624.6994-1.5625 1.5625-1.5625h.0781v-.0781c0-.8625.6995-1.5625 1.5625-1.5625s1.5625.7 1.5625 1.5625V68.5zM29.2029 37.2507h-.0781v-.0782c0-.863-.6995-1.5625-1.5625-1.5625s-1.5625.6995-1.5625 1.5625v.0782h-.0781c-.8631 0-1.5625.6994-1.5625 1.5625 0 .863.6994 1.5625 1.5625 1.5625h.0781v.0781c0 .863.6995 1.5625 1.5625 1.5625s1.5625-.6995 1.5625-1.5625v-.0781h.0781c.8631 0 1.5625-.6995 1.5625-1.5625 0-.8631-.6994-1.5625-1.5625-1.5625zM13.4998 52.875h.0782c.863 0 1.5625.7001 1.5625 1.5625 0 .863-.6995 1.5625-1.5625 1.5625h-.0782v.0787c0 .8625-.6994 1.5625-1.5625 1.5625-.8624 0-1.5625-.7-1.5625-1.5625V56h-.0781c-.8624 0-1.5625-.6995-1.5625-1.5625 0-.8624.7-1.5625 1.5625-1.5625h.0781v-.0781c0-.8625.7001-1.5625 1.5625-1.5625.8631 0 1.5625.7 1.5625 1.5625v.0781zM13.578 68.5h-.0782v-.0781c0-.8625-.6994-1.5625-1.5625-1.5625-.8624 0-1.5625.7-1.5625 1.5625V68.5h-.0781c-.8624 0-1.5625.7001-1.5625 1.5625 0 .863.7 1.5625 1.5625 1.5625h.0781v.0781c0 .8631.7001 1.5625 1.5625 1.5625.8631 0 1.5625-.6994 1.5625-1.5625v-.0781h.0782c.863 0 1.5625-.6995 1.5625-1.5625 0-.8624-.6995-1.5625-1.5625-1.5625zM13.4998 37.2507h.0782c.863 0 1.5625.6994 1.5625 1.5625 0 .863-.6995 1.5625-1.5625 1.5625h-.0782v.0781c0 .863-.6994 1.5625-1.5625 1.5625-.8624 0-1.5625-.6995-1.5625-1.5625v-.0781h-.0781c-.8624 0-1.5625-.6995-1.5625-1.5625 0-.8631.7-1.5625 1.5625-1.5625h.0781v-.0782c0-.863.7001-1.5625 1.5625-1.5625.8631 0 1.5625.6995 1.5625 1.5625v.0782zM44.8279 52.875h-.0781v-.0781c0-.8625-.7001-1.5625-1.5625-1.5625-.8631 0-1.5626.7-1.5626 1.5625v.0781h-.0781c-.863 0-1.5625.7001-1.5625 1.5625 0 .863.6995 1.5625 1.5625 1.5625h.0781v.0787c0 .8625.6995 1.5625 1.5626 1.5625.8624 0 1.5625-.7 1.5625-1.5625V56h.0781c.8624 0 1.5625-.6995 1.5625-1.5625 0-.8624-.6995-1.5625-1.5625-1.5625zM44.7498 68.5h.0781c.863 0 1.5625.7001 1.5625 1.5625 0 .863-.7001 1.5625-1.5625 1.5625h-.0781v.0781c0 .8631-.7001 1.5625-1.5625 1.5625-.8631 0-1.5626-.6994-1.5626-1.5625v-.0781h-.0781c-.863 0-1.5625-.6995-1.5625-1.5625 0-.8624.6995-1.5625 1.5625-1.5625h.0781v-.0781c0-.8625.6995-1.5625 1.5626-1.5625.8624 0 1.5625.7 1.5625 1.5625V68.5zM44.8279 37.2507h-.0781v-.0782c0-.863-.7001-1.5625-1.5625-1.5625-.8631 0-1.5626.6995-1.5626 1.5625v.0782h-.0781c-.863 0-1.5625.6994-1.5625 1.5625 0 .863.6995 1.5625 1.5625 1.5625h.0781v.0781c0 .863.6995 1.5625 1.5626 1.5625.8624 0 1.5625-.6995 1.5625-1.5625v-.0781h.0781c.8624 0 1.5625-.6995 1.5625-1.5625 0-.8631-.6995-1.5625-1.5625-1.5625zM21.3123 60.6875h.0782c.863 0 1.5625.7001 1.5625 1.5625 0 .8631-.6995 1.5625-1.5625 1.5625h-.0782v.0788c0 .8624-.6994 1.5625-1.5625 1.5625-.863 0-1.5625-.7001-1.5625-1.5625v-.0788h-.0781c-.863 0-1.5625-.6994-1.5625-1.5625 0-.8624.6995-1.5625 1.5625-1.5625h.0781v-.0781c0-.8624.6995-1.5625 1.5625-1.5625.8631 0 1.5625.7001 1.5625 1.5625v.0781zM37.0154 60.6875h-.0781v-.0781c0-.8624-.6995-1.5625-1.5625-1.5625-.8631 0-1.5626.7001-1.5626 1.5625v.0781h-.0781c-.863 0-1.5625.7001-1.5625 1.5625 0 .8631.6995 1.5625 1.5625 1.5625h.0781v.0788c0 .8624.6995 1.5625 1.5626 1.5625.863 0 1.5625-.7001 1.5625-1.5625v-.0788h.0781c.8624 0 1.5625-.6994 1.5625-1.5625 0-.8624-.6995-1.5625-1.5625-1.5625zM21.3123 45.0631h.0782c.863 0 1.5625.6995 1.5625 1.5625 0 .8625-.6995 1.5625-1.5625 1.5625h-.0782v.0782c0 .8624-.6994 1.5625-1.5625 1.5625-.863 0-1.5625-.7001-1.5625-1.5625v-.0782h-.0781c-.863 0-1.5625-.7-1.5625-1.5625 0-.863.6995-1.5625 1.5625-1.5625h.0781v-.0781c0-.863.6995-1.5625 1.5625-1.5625.8631 0 1.5625.6995 1.5625 1.5625v.0781zM37.0154 45.0631h-.0781v-.0781c0-.863-.6995-1.5625-1.5625-1.5625-.8631 0-1.5626.6995-1.5626 1.5625v.0781h-.0781c-.863 0-1.5625.6995-1.5625 1.5625 0 .8625.6995 1.5625 1.5625 1.5625h.0781v.0782c0 .8624.6995 1.5625 1.5626 1.5625.863 0 1.5625-.7001 1.5625-1.5625v-.0782h.0781c.8624 0 1.5625-.7 1.5625-1.5625 0-.863-.6995-1.5625-1.5625-1.5625zM22.9479 23.3537c0-.863.6995-1.5625 1.5625-1.5625.8625 0 1.5625.6995 1.5625 1.5625s-.7 1.5625-1.5625 1.5625c-.863 0-1.5625-.6995-1.5625-1.5625zM36.3849 21.7912c-.8625 0-1.5625.6995-1.5625 1.5625s.7 1.5625 1.5625 1.5625c.863 0 1.5625-.6995 1.5625-1.5625s-.6995-1.5625-1.5625-1.5625zM46.6974 23.3537c0-.863.6995-1.5625 1.5625-1.5625s1.5625.6995 1.5625 1.5625-.6995 1.5625-1.5625 1.5625-1.5625-.6995-1.5625-1.5625zM60.1349 21.7912c-.863 0-1.5625.6995-1.5625 1.5625s.6995 1.5625 1.5625 1.5625c.8625 0 1.5625-.6995 1.5625-1.5625s-.7-1.5625-1.5625-1.5625zM58.5724 35.228c0-.8625.6994-1.5625 1.5625-1.5625.8624 0 1.5625.6994 1.5625 1.5625 0 .863-.7001 1.5631-1.5625 1.5631-.8631 0-1.5625-.7001-1.5625-1.5631zM60.1349 45.3189c-.8631 0-1.5625.7-1.5625 1.5625 0 .863.6994 1.5631 1.5625 1.5631.8624 0 1.5625-.7001 1.5625-1.5631 0-.8631-.7001-1.5625-1.5625-1.5625zM58.5724 58.6458c0-.8624.6994-1.5625 1.5625-1.5625.8624 0 1.5625.6995 1.5625 1.5625s-.7001 1.5631-1.5625 1.5631c-.8631 0-1.5625-.7001-1.5625-1.5631z" fill="#5591B3"/><path fill-rule="evenodd" clip-rule="evenodd" d="M80.8349 42.9672l-1.1212 2.2424 1.1212 2.2424a1.5622 1.5622 0 0 1-.2924 1.8036l-4.4122 4.4116a1.5596 1.5596 0 0 1-1.1054.4578c-.2368 0-.476-.0543-.6982-.1648l-2.2424-1.1212-2.2424 1.1212a1.5646 1.5646 0 0 1-1.3978 0l-.5505-.2759.661 1.3226a1.5644 1.5644 0 0 1 0 1.3977l-1.1212 2.2425 1.1212 2.2424a1.5623 1.5623 0 0 1-.2923 1.8036L63.85 67.1047a1.5589 1.5589 0 0 1-1.1047.4578 1.5555 1.5555 0 0 1-.6982-.1648l-2.2431-1.1212-2.2424 1.1212a1.5631 1.5631 0 0 1-1.3971 0l-2.2424-1.1212-.8374.418.8752 1.7499a1.5637 1.5637 0 0 1 0 1.3977l-1.1212 2.2424 1.1212 2.2425a1.5634 1.5634 0 0 1-.2929 1.8036l-4.4116 4.4116a1.5616 1.5616 0 0 1-1.1054.4577 1.5573 1.5573 0 0 1-.6982-.1648l-2.2425-1.1212-2.2424 1.1212a1.5637 1.5637 0 0 1-1.3977 0l-2.2424-1.1212-2.2424 1.1212a1.5625 1.5625 0 0 1-1.3971 0l-2.2425-1.1212-2.2424 1.1212a1.5587 1.5587 0 0 1-1.3971 0l-2.243-1.1212-2.2424 1.1212a1.5587 1.5587 0 0 1-1.3971 0l-2.2425-1.1212-2.2424 1.1212a1.56 1.56 0 0 1-1.3977 0l-2.2424-1.1212-2.2424 1.1212a1.5587 1.5587 0 0 1-1.3971 0l-2.243-1.1212-2.2425 1.1212a1.5626 1.5626 0 0 1-1.8036-.2923l-4.4116-4.4116a1.5633 1.5633 0 0 1-.2924-1.8042l1.1213-2.2418-1.1213-2.2425a1.5604 1.5604 0 0 1 0-1.3977l1.1213-2.2424-1.1213-2.2424a1.5604 1.5604 0 0 1 0-1.3977L2.2866 60.32l-1.1213-2.2424a1.559 1.559 0 0 1 0-1.3971l1.1213-2.243-1.1213-2.2418a1.5604 1.5604 0 0 1 0-1.3977l1.1213-2.2425-1.1213-2.2424a1.5604 1.5604 0 0 1 0-1.3977l1.1213-2.2418-1.1213-2.2424a1.5604 1.5604 0 0 1 0-1.3977l1.1213-2.2425-1.1213-2.2424a1.5623 1.5623 0 0 1 .2924-1.8036l4.4116-4.4122a1.5633 1.5633 0 0 1 1.8036-.2923l2.2424 1.1212 2.2425-1.1212a1.5618 1.5618 0 0 1 1.3977 0l2.2424 1.1212.8368-.4187-.8747-1.7499a1.5631 1.5631 0 0 1 0-1.3971l1.1213-2.2424-1.1213-2.2431a1.5623 1.5623 0 0 1 .2924-1.8035l4.4122-4.4117a1.5633 1.5633 0 0 1 1.8036-.2923l2.2424 1.1212 2.2419-1.1212a1.5606 1.5606 0 0 1 1.3977 0l.5511.2753-.661-1.3227a1.5631 1.5631 0 0 1 0-1.3971l1.1212-2.2424-1.1212-2.243a1.5626 1.5626 0 0 1 .2923-1.8036l4.4117-4.4116a1.5624 1.5624 0 0 1 1.8035-.2924l2.2425 1.1212 2.2424-1.1212c.7715-.3857 1.7102-.0732 2.0966.6989.3857.772.0726 1.7102-.6989 2.0965L37.489 5.4313a1.563 1.563 0 0 1-1.3971 0l-1.9342-.9668-2.8192 2.8192.9668 1.9336a1.56 1.56 0 0 1 0 1.3977l-1.1212 2.2424.9888 1.9769.462-.2313a1.5644 1.5644 0 0 1 1.3977 0l2.2418 1.1212 2.2424-1.1212a1.5646 1.5646 0 0 1 1.3978 0l2.2424 1.1212 2.2424-1.1212a1.5644 1.5644 0 0 1 1.3977 0l2.2424 1.1212 2.2425-1.1212a1.5644 1.5644 0 0 1 1.3977 0l2.2424 1.1212 2.2418-1.1212a1.5644 1.5644 0 0 1 1.3977 0l2.2424 1.1212 2.2425-1.1212a1.5631 1.5631 0 0 1 1.8035.293l4.4123 4.4116a1.5622 1.5622 0 0 1 .2923 1.8035l-1.1212 2.2425 1.1212 2.2424a1.5644 1.5644 0 0 1 0 1.3977l-1.1212 2.2424 1.1212 2.2425a1.5644 1.5644 0 0 1 0 1.3977l-1.1212 2.2424 1.1212 2.2418a1.5644 1.5644 0 0 1 0 1.3977l-1.1212 2.2424 1.1212 2.2425c.2197.44.2197.9576 0 1.3977l-1.1212 2.2424 1.1212 2.2424c.2197.4395.2197.957.0006 1.3965l.5878.2942 2.243-1.1212a1.5606 1.5606 0 0 1 1.3971 0l1.9336.9668 2.8192-2.8192-.9668-1.9336a1.5644 1.5644 0 0 1 0-1.3977l1.1212-2.2425-1.1212-2.2424a1.5631 1.5631 0 0 1 0-1.3971l1.1212-2.243-1.1212-2.2424a1.5631 1.5631 0 0 1 0-1.3971l1.1212-2.2425-1.1212-2.2424a1.5644 1.5644 0 0 1 0-1.3977l1.1212-2.2424-1.1212-2.2424a1.5644 1.5644 0 0 1 0-1.3977l1.1212-2.2425-1.1212-2.2424a1.5644 1.5644 0 0 1 0-1.3977l1.1212-2.2418-1.1212-2.2424a1.5645 1.5645 0 0 1 0-1.3977l.9668-1.9342-2.8192-2.8186-1.9336.9668a1.563 1.563 0 0 1-1.3971 0L69.143 4.31l-2.2424 1.1213a1.563 1.563 0 0 1-1.3971 0L63.2611 4.31 61.018 5.4313a1.563 1.563 0 0 1-1.3971 0L57.3785 4.31l-2.2424 1.1213a1.5642 1.5642 0 0 1-1.3977 0l-2.9413-1.4704c-.7715-.3863-1.0846-1.325-.6989-2.0965.3858-.7721 1.3245-1.0852 2.0966-.6989l2.2424 1.1212 2.2425-1.1212a1.5642 1.5642 0 0 1 1.3977 0l2.2424 1.1212 2.2424-1.1212a1.563 1.563 0 0 1 1.3971 0l2.2424 1.1212 2.2424-1.1212a1.563 1.563 0 0 1 1.3971 0l2.2431 1.1212 2.2424-1.1212a1.5642 1.5642 0 0 1 1.8036.2924l4.4116 4.4116a1.5623 1.5623 0 0 1 .293 1.8036l-1.1212 2.2424 1.1212 2.2424a1.5644 1.5644 0 0 1 0 1.3977l-1.1212 2.2418 1.1212 2.2431a1.5631 1.5631 0 0 1 0 1.3971L79.7137 21.68l1.1212 2.2424a1.5644 1.5644 0 0 1 0 1.3977l-1.1212 2.2425 1.1212 2.2424a1.5644 1.5644 0 0 1 0 1.3977l-1.1212 2.2424 1.1212 2.2418a1.5644 1.5644 0 0 1 0 1.3977l-1.1212 2.2424 1.1212 2.2425c.2197.44.2197.9576 0 1.3977zM50.661 74.717l-.9668-1.9336a1.5625 1.5625 0 0 1-.0006-1.3977l1.1212-2.2424-1.1212-2.2418a1.5646 1.5646 0 0 1 0-1.3978l1.1212-2.2424-1.1212-2.2424a1.5644 1.5644 0 0 1 0-1.3977l1.1212-2.2424-1.1212-2.2425a1.5644 1.5644 0 0 1 0-1.3977l1.1212-2.2424-1.1212-2.2424a1.5631 1.5631 0 0 1 0-1.3971l1.1212-2.243-1.1212-2.2419a1.5644 1.5644 0 0 1 0-1.3977l1.1212-2.2424-1.1212-2.2424a1.5644 1.5644 0 0 1 0-1.3977l.9668-1.9336-2.8186-2.8192-1.9342.9668a1.5631 1.5631 0 0 1-1.3971 0l-2.2424-1.1212-2.2431 1.1212a1.5612 1.5612 0 0 1-1.3971 0l-2.2424-1.1212-2.2424 1.1212a1.5644 1.5644 0 0 1-1.3977 0l-2.2424-1.1212-2.2425 1.1212a1.5625 1.5625 0 0 1-1.3977 0l-2.2418-1.1212-2.2424 1.1212a1.5625 1.5625 0 0 1-1.3977 0l-2.2424-1.1212-2.2425 1.1212a1.5644 1.5644 0 0 1-1.3977 0l-2.2424-1.1212-2.2424 1.1212a1.5625 1.5625 0 0 1-1.3977 0l-1.9336-.9668L4.463 34.158l.9668 1.9336c.2203.44.2203.9576 0 1.3977l-1.1212 2.2424 1.1212 2.2424a1.5603 1.5603 0 0 1 0 1.3977l-1.1212 2.2419 1.1212 2.243a1.559 1.559 0 0 1 0 1.3971l-1.1212 2.2424 1.1212 2.2424a1.5603 1.5603 0 0 1 0 1.3977l-1.1212 2.2425 1.1212 2.2424a1.5603 1.5603 0 0 1 0 1.3977l-1.1212 2.2424 1.1212 2.2424a1.5605 1.5605 0 0 1 0 1.3978l-1.1212 2.2418 1.1212 2.2424a1.5603 1.5603 0 0 1 0 1.3977L4.463 74.717l2.8192 2.8192 1.9336-.9668a1.5644 1.5644 0 0 1 1.3977 0l2.2424 1.1212 2.2424-1.1212a1.5644 1.5644 0 0 1 1.3977 0l2.2425 1.1212 2.2424-1.1212a1.5631 1.5631 0 0 1 1.3971 0l2.243 1.1212 2.2424-1.1212a1.5606 1.5606 0 0 1 .6983-.1648c.2398 0 .4791.0549.6988.1648l2.2431 1.1212 2.2424-1.1212a1.5631 1.5631 0 0 1 1.3971 0l2.2424 1.1212 2.2424-1.1212a1.5644 1.5644 0 0 1 1.3977 0l2.2425 1.1212 2.2424-1.1212a1.5631 1.5631 0 0 1 1.3971 0l1.9342.9668 2.8192-2.8192zm14.5947-13.4375l-.9668-1.9336a1.5644 1.5644 0 0 1 0-1.3977l1.1212-2.2424-1.1212-2.2418a1.5644 1.5644 0 0 1 0-1.3977l.7715-1.543.0006-.0018c.0002-.0003.0008-.0012.0012-.0012l.3479-.6964-1.1212-2.2425a1.5644 1.5644 0 0 1 0-1.3977l1.1212-2.2424-1.1212-2.2424a1.5631 1.5631 0 0 1 0-1.3971l1.1212-2.2431-1.1212-2.2418a1.5644 1.5644 0 0 1 0-1.3977l1.1212-2.2424-1.1212-2.2424a1.5644 1.5644 0 0 1 0-1.3977l1.1212-2.2425-1.1212-2.2424a1.5631 1.5631 0 0 1 0-1.3971l.9668-1.9342-2.8192-2.8192-1.9336.9668a1.5612 1.5612 0 0 1-1.3971 0l-2.243-1.1212-2.2425 1.1212a1.5631 1.5631 0 0 1-1.3971 0l-2.2424-1.1212-2.243 1.1212a1.5612 1.5612 0 0 1-1.3971 0l-2.2424-1.1212-2.2425 1.1212a1.5625 1.5625 0 0 1-1.3977 0l-2.2424-1.1212-2.2424 1.1212a1.5644 1.5644 0 0 1-1.3977 0l-2.2418-1.1212-2.2431 1.1212a1.5612 1.5612 0 0 1-1.3971 0l-2.2424-1.1212-2.2424 1.1212a1.5644 1.5644 0 0 1-1.3977 0l-1.9336-.9668-2.8192 2.8192.9668 1.9342a1.5631 1.5631 0 0 1 0 1.3971l-1.1212 2.2424.9863 1.9727 1.7895.8948 2.2425-1.1212a1.56 1.56 0 0 1 1.3977 0l2.2418 1.1212 2.243-1.1212a1.5606 1.5606 0 0 1 1.3971 0l2.2424 1.1212 2.2425-1.1212a1.56 1.56 0 0 1 1.3977 0l2.2424 1.1212 2.2424-1.1212a1.5618 1.5618 0 0 1 1.3977 0l2.2424 1.1212 2.2419-1.1212a1.5633 1.5633 0 0 1 1.8042.2923l4.4116 4.4116a1.5625 1.5625 0 0 1 .2923 1.8036l-1.1212 2.2424 1.1212 2.2431a1.5631 1.5631 0 0 1 0 1.3971l-1.1212 2.2424 1.1212 2.2424a1.5644 1.5644 0 0 1 0 1.3977l-1.1212 2.2424 1.1212 2.2425a1.5644 1.5644 0 0 1 0 1.3977l-1.1212 2.2418 1.1212 2.243a1.5631 1.5631 0 0 1 0 1.3971L52.8381 60.32l1.1212 2.2425a1.543 1.543 0 0 1 .1367.4144c.1801.0201.3577.072.5243.155l2.2425 1.1212 2.2424-1.1212a1.5644 1.5644 0 0 1 1.3977 0l1.9336.9668 2.8192-2.8192z" fill="#5591B3"/><path d="M47.1765 2.5632c0 .8625-.7001 1.5625-1.5625 1.5625-.863 0-1.5631-.7-1.5631-1.5625 0-.863.6989-1.5625 1.5619-1.5625.8624 0 1.5637.6995 1.5637 1.5625z" fill="#5591B3"/><path d="M29.2029 52.875h-.0781v-.0781c0-.8625-.6995-1.5625-1.5625-1.5625s-1.5625.7-1.5625 1.5625v.0781h-.0781c-.8631 0-1.5625.7001-1.5625 1.5625 0 .863.6994 1.5625 1.5625 1.5625h.0781v.0787c0 .8625.6995 1.5625 1.5625 1.5625s1.5625-.7 1.5625-1.5625V56h.0781c.8631 0 1.5625-.6995 1.5625-1.5625 0-.8624-.6994-1.5625-1.5625-1.5625zM29.1248 68.5h.0781c.8631 0 1.5625.7001 1.5625 1.5625 0 .863-.6994 1.5625-1.5625 1.5625h-.0781v.0781c0 .8631-.6995 1.5625-1.5625 1.5625s-1.5625-.6994-1.5625-1.5625v-.0781h-.0781c-.8631 0-1.5625-.6995-1.5625-1.5625 0-.8624.6994-1.5625 1.5625-1.5625h.0781v-.0781c0-.8625.6995-1.5625 1.5625-1.5625s1.5625.7 1.5625 1.5625V68.5zM29.2029 37.2507h-.0781v-.0782c0-.863-.6995-1.5625-1.5625-1.5625s-1.5625.6995-1.5625 1.5625v.0782h-.0781c-.8631 0-1.5625.6994-1.5625 1.5625 0 .863.6994 1.5625 1.5625 1.5625h.0781v.0781c0 .863.6995 1.5625 1.5625 1.5625s1.5625-.6995 1.5625-1.5625v-.0781h.0781c.8631 0 1.5625-.6995 1.5625-1.5625 0-.8631-.6994-1.5625-1.5625-1.5625zM13.4998 52.875h.0782c.863 0 1.5625.7001 1.5625 1.5625 0 .863-.6995 1.5625-1.5625 1.5625h-.0782v.0787c0 .8625-.6994 1.5625-1.5625 1.5625-.8624 0-1.5625-.7-1.5625-1.5625V56h-.0781c-.8624 0-1.5625-.6995-1.5625-1.5625 0-.8624.7-1.5625 1.5625-1.5625h.0781v-.0781c0-.8625.7001-1.5625 1.5625-1.5625.8631 0 1.5625.7 1.5625 1.5625v.0781zM13.578 68.5h-.0782v-.0781c0-.8625-.6994-1.5625-1.5625-1.5625-.8624 0-1.5625.7-1.5625 1.5625V68.5h-.0781c-.8624 0-1.5625.7001-1.5625 1.5625 0 .863.7 1.5625 1.5625 1.5625h.0781v.0781c0 .8631.7001 1.5625 1.5625 1.5625.8631 0 1.5625-.6994 1.5625-1.5625v-.0781h.0782c.863 0 1.5625-.6995 1.5625-1.5625 0-.8624-.6995-1.5625-1.5625-1.5625zM13.4998 37.2507h.0782c.863 0 1.5625.6994 1.5625 1.5625 0 .863-.6995 1.5625-1.5625 1.5625h-.0782v.0781c0 .863-.6994 1.5625-1.5625 1.5625-.8624 0-1.5625-.6995-1.5625-1.5625v-.0781h-.0781c-.8624 0-1.5625-.6995-1.5625-1.5625 0-.8631.7-1.5625 1.5625-1.5625h.0781v-.0782c0-.863.7001-1.5625 1.5625-1.5625.8631 0 1.5625.6995 1.5625 1.5625v.0782zM44.8279 52.875h-.0781v-.0781c0-.8625-.7001-1.5625-1.5625-1.5625-.8631 0-1.5626.7-1.5626 1.5625v.0781h-.0781c-.863 0-1.5625.7001-1.5625 1.5625 0 .863.6995 1.5625 1.5625 1.5625h.0781v.0787c0 .8625.6995 1.5625 1.5626 1.5625.8624 0 1.5625-.7 1.5625-1.5625V56h.0781c.8624 0 1.5625-.6995 1.5625-1.5625 0-.8624-.6995-1.5625-1.5625-1.5625zM44.7498 68.5h.0781c.863 0 1.5625.7001 1.5625 1.5625 0 .863-.7001 1.5625-1.5625 1.5625h-.0781v.0781c0 .8631-.7001 1.5625-1.5625 1.5625-.8631 0-1.5626-.6994-1.5626-1.5625v-.0781h-.0781c-.863 0-1.5625-.6995-1.5625-1.5625 0-.8624.6995-1.5625 1.5625-1.5625h.0781v-.0781c0-.8625.6995-1.5625 1.5626-1.5625.8624 0 1.5625.7 1.5625 1.5625V68.5zM44.8279 37.2507h-.0781v-.0782c0-.863-.7001-1.5625-1.5625-1.5625-.8631 0-1.5626.6995-1.5626 1.5625v.0782h-.0781c-.863 0-1.5625.6994-1.5625 1.5625 0 .863.6995 1.5625 1.5625 1.5625h.0781v.0781c0 .863.6995 1.5625 1.5626 1.5625.8624 0 1.5625-.6995 1.5625-1.5625v-.0781h.0781c.8624 0 1.5625-.6995 1.5625-1.5625 0-.8631-.6995-1.5625-1.5625-1.5625zM21.3123 60.6875h.0782c.863 0 1.5625.7001 1.5625 1.5625 0 .8631-.6995 1.5625-1.5625 1.5625h-.0782v.0788c0 .8624-.6994 1.5625-1.5625 1.5625-.863 0-1.5625-.7001-1.5625-1.5625v-.0788h-.0781c-.863 0-1.5625-.6994-1.5625-1.5625 0-.8624.6995-1.5625 1.5625-1.5625h.0781v-.0781c0-.8624.6995-1.5625 1.5625-1.5625.8631 0 1.5625.7001 1.5625 1.5625v.0781zM37.0154 60.6875h-.0781v-.0781c0-.8624-.6995-1.5625-1.5625-1.5625-.8631 0-1.5626.7001-1.5626 1.5625v.0781h-.0781c-.863 0-1.5625.7001-1.5625 1.5625 0 .8631.6995 1.5625 1.5625 1.5625h.0781v.0788c0 .8624.6995 1.5625 1.5626 1.5625.863 0 1.5625-.7001 1.5625-1.5625v-.0788h.0781c.8624 0 1.5625-.6994 1.5625-1.5625 0-.8624-.6995-1.5625-1.5625-1.5625zM21.3123 45.0631h.0782c.863 0 1.5625.6995 1.5625 1.5625 0 .8625-.6995 1.5625-1.5625 1.5625h-.0782v.0782c0 .8624-.6994 1.5625-1.5625 1.5625-.863 0-1.5625-.7001-1.5625-1.5625v-.0782h-.0781c-.863 0-1.5625-.7-1.5625-1.5625 0-.863.6995-1.5625 1.5625-1.5625h.0781v-.0781c0-.863.6995-1.5625 1.5625-1.5625.8631 0 1.5625.6995 1.5625 1.5625v.0781zM37.0154 45.0631h-.0781v-.0781c0-.863-.6995-1.5625-1.5625-1.5625-.8631 0-1.5626.6995-1.5626 1.5625v.0781h-.0781c-.863 0-1.5625.6995-1.5625 1.5625 0 .8625.6995 1.5625 1.5625 1.5625h.0781v.0782c0 .8624.6995 1.5625 1.5626 1.5625.863 0 1.5625-.7001 1.5625-1.5625v-.0782h.0781c.8624 0 1.5625-.7 1.5625-1.5625 0-.863-.6995-1.5625-1.5625-1.5625zM22.9479 23.3537c0-.863.6995-1.5625 1.5625-1.5625.8625 0 1.5625.6995 1.5625 1.5625s-.7 1.5625-1.5625 1.5625c-.863 0-1.5625-.6995-1.5625-1.5625zM36.3849 21.7912c-.8625 0-1.5625.6995-1.5625 1.5625s.7 1.5625 1.5625 1.5625c.863 0 1.5625-.6995 1.5625-1.5625s-.6995-1.5625-1.5625-1.5625zM46.6974 23.3537c0-.863.6995-1.5625 1.5625-1.5625s1.5625.6995 1.5625 1.5625-.6995 1.5625-1.5625 1.5625-1.5625-.6995-1.5625-1.5625zM60.1349 21.7912c-.863 0-1.5625.6995-1.5625 1.5625s.6995 1.5625 1.5625 1.5625c.8625 0 1.5625-.6995 1.5625-1.5625s-.7-1.5625-1.5625-1.5625zM58.5724 35.228c0-.8625.6994-1.5625 1.5625-1.5625.8624 0 1.5625.6994 1.5625 1.5625 0 .863-.7001 1.5631-1.5625 1.5631-.8631 0-1.5625-.7001-1.5625-1.5631zM60.1349 45.3189c-.8631 0-1.5625.7-1.5625 1.5625 0 .863.6994 1.5631 1.5625 1.5631.8624 0 1.5625-.7001 1.5625-1.5631 0-.8631-.7001-1.5625-1.5625-1.5625zM58.5724 58.6458c0-.8624.6994-1.5625 1.5625-1.5625.8624 0 1.5625.6995 1.5625 1.5625s-.7001 1.5631-1.5625 1.5631c-.8631 0-1.5625-.7001-1.5625-1.5631z" stroke="#fff" stroke-width=".5"/><path clip-rule="evenodd" d="M80.8349 42.9672l-1.1212 2.2424 1.1212 2.2424a1.5622 1.5622 0 0 1-.2924 1.8036l-4.4122 4.4116a1.5596 1.5596 0 0 1-1.1054.4578c-.2368 0-.476-.0543-.6982-.1648l-2.2424-1.1212-2.2424 1.1212a1.5646 1.5646 0 0 1-1.3978 0l-.5505-.2759.661 1.3226a1.5644 1.5644 0 0 1 0 1.3977l-1.1212 2.2425 1.1212 2.2424a1.5623 1.5623 0 0 1-.2923 1.8036L63.85 67.1047a1.5589 1.5589 0 0 1-1.1047.4578 1.5555 1.5555 0 0 1-.6982-.1648l-2.2431-1.1212-2.2424 1.1212a1.5631 1.5631 0 0 1-1.3971 0l-2.2424-1.1212-.8374.418.8752 1.7499a1.5637 1.5637 0 0 1 0 1.3977l-1.1212 2.2424 1.1212 2.2425a1.5634 1.5634 0 0 1-.2929 1.8036l-4.4116 4.4116a1.5616 1.5616 0 0 1-1.1054.4577 1.5573 1.5573 0 0 1-.6982-.1648l-2.2425-1.1212-2.2424 1.1212a1.5637 1.5637 0 0 1-1.3977 0l-2.2424-1.1212-2.2424 1.1212a1.5625 1.5625 0 0 1-1.3971 0l-2.2425-1.1212-2.2424 1.1212a1.5587 1.5587 0 0 1-1.3971 0l-2.243-1.1212-2.2424 1.1212a1.5587 1.5587 0 0 1-1.3971 0l-2.2425-1.1212-2.2424 1.1212a1.56 1.56 0 0 1-1.3977 0l-2.2424-1.1212-2.2424 1.1212a1.5587 1.5587 0 0 1-1.3971 0l-2.243-1.1212-2.2425 1.1212a1.5626 1.5626 0 0 1-1.8036-.2923l-4.4116-4.4116a1.5633 1.5633 0 0 1-.2924-1.8042l1.1213-2.2418-1.1213-2.2425a1.5604 1.5604 0 0 1 0-1.3977l1.1213-2.2424-1.1213-2.2424a1.5604 1.5604 0 0 1 0-1.3977L2.2866 60.32l-1.1213-2.2424a1.559 1.559 0 0 1 0-1.3971l1.1213-2.243-1.1213-2.2418a1.5604 1.5604 0 0 1 0-1.3977l1.1213-2.2425-1.1213-2.2424a1.5604 1.5604 0 0 1 0-1.3977l1.1213-2.2418-1.1213-2.2424a1.5604 1.5604 0 0 1 0-1.3977l1.1213-2.2425-1.1213-2.2424a1.5623 1.5623 0 0 1 .2924-1.8036l4.4116-4.4122a1.5633 1.5633 0 0 1 1.8036-.2923l2.2424 1.1212 2.2425-1.1212a1.5618 1.5618 0 0 1 1.3977 0l2.2424 1.1212.8368-.4187-.8747-1.7499a1.5631 1.5631 0 0 1 0-1.3971l1.1213-2.2424-1.1213-2.2431a1.5623 1.5623 0 0 1 .2924-1.8035l4.4122-4.4117a1.5633 1.5633 0 0 1 1.8036-.2923l2.2424 1.1212 2.2419-1.1212a1.5606 1.5606 0 0 1 1.3977 0l.5511.2753-.661-1.3227a1.5631 1.5631 0 0 1 0-1.3971l1.1212-2.2424-1.1212-2.243a1.5626 1.5626 0 0 1 .2923-1.8036l4.4117-4.4116a1.5624 1.5624 0 0 1 1.8035-.2924l2.2425 1.1212 2.2424-1.1212c.7715-.3857 1.7102-.0732 2.0966.6989.3857.772.0726 1.7102-.6989 2.0965L37.489 5.4313a1.563 1.563 0 0 1-1.3971 0l-1.9342-.9668-2.8192 2.8192.9668 1.9336a1.56 1.56 0 0 1 0 1.3977l-1.1212 2.2424.9888 1.9769.462-.2313a1.5644 1.5644 0 0 1 1.3977 0l2.2418 1.1212 2.2424-1.1212a1.5646 1.5646 0 0 1 1.3978 0l2.2424 1.1212 2.2424-1.1212a1.5644 1.5644 0 0 1 1.3977 0l2.2424 1.1212 2.2425-1.1212a1.5644 1.5644 0 0 1 1.3977 0l2.2424 1.1212 2.2418-1.1212a1.5644 1.5644 0 0 1 1.3977 0l2.2424 1.1212 2.2425-1.1212a1.5631 1.5631 0 0 1 1.8035.293l4.4123 4.4116a1.5622 1.5622 0 0 1 .2923 1.8035l-1.1212 2.2425 1.1212 2.2424a1.5644 1.5644 0 0 1 0 1.3977l-1.1212 2.2424 1.1212 2.2425a1.5644 1.5644 0 0 1 0 1.3977l-1.1212 2.2424 1.1212 2.2418a1.5644 1.5644 0 0 1 0 1.3977l-1.1212 2.2424 1.1212 2.2425c.2197.44.2197.9576 0 1.3977l-1.1212 2.2424 1.1212 2.2424c.2197.4395.2197.957.0006 1.3965l.5878.2942 2.243-1.1212a1.5606 1.5606 0 0 1 1.3971 0l1.9336.9668 2.8192-2.8192-.9668-1.9336a1.5644 1.5644 0 0 1 0-1.3977l1.1212-2.2425-1.1212-2.2424a1.5631 1.5631 0 0 1 0-1.3971l1.1212-2.243-1.1212-2.2424a1.5631 1.5631 0 0 1 0-1.3971l1.1212-2.2425-1.1212-2.2424a1.5644 1.5644 0 0 1 0-1.3977l1.1212-2.2424-1.1212-2.2424a1.5644 1.5644 0 0 1 0-1.3977l1.1212-2.2425-1.1212-2.2424a1.5644 1.5644 0 0 1 0-1.3977l1.1212-2.2418-1.1212-2.2424a1.5645 1.5645 0 0 1 0-1.3977l.9668-1.9342-2.8192-2.8186-1.9336.9668a1.563 1.563 0 0 1-1.3971 0L69.143 4.31l-2.2424 1.1213a1.563 1.563 0 0 1-1.3971 0L63.2611 4.31 61.018 5.4313a1.563 1.563 0 0 1-1.3971 0L57.3785 4.31l-2.2424 1.1213a1.5642 1.5642 0 0 1-1.3977 0l-2.9413-1.4704c-.7715-.3863-1.0846-1.325-.6989-2.0965.3858-.7721 1.3245-1.0852 2.0966-.6989l2.2424 1.1212 2.2425-1.1212a1.5642 1.5642 0 0 1 1.3977 0l2.2424 1.1212 2.2424-1.1212a1.563 1.563 0 0 1 1.3971 0l2.2424 1.1212 2.2424-1.1212a1.563 1.563 0 0 1 1.3971 0l2.2431 1.1212 2.2424-1.1212a1.5642 1.5642 0 0 1 1.8036.2924l4.4116 4.4116a1.5623 1.5623 0 0 1 .293 1.8036l-1.1212 2.2424 1.1212 2.2424a1.5644 1.5644 0 0 1 0 1.3977l-1.1212 2.2418 1.1212 2.2431a1.5631 1.5631 0 0 1 0 1.3971L79.7137 21.68l1.1212 2.2424a1.5644 1.5644 0 0 1 0 1.3977l-1.1212 2.2425 1.1212 2.2424a1.5644 1.5644 0 0 1 0 1.3977l-1.1212 2.2424 1.1212 2.2418a1.5644 1.5644 0 0 1 0 1.3977l-1.1212 2.2424 1.1212 2.2425c.2197.44.2197.9576 0 1.3977zM50.661 74.717l-.9668-1.9336a1.5625 1.5625 0 0 1-.0006-1.3977l1.1212-2.2424-1.1212-2.2418a1.5646 1.5646 0 0 1 0-1.3978l1.1212-2.2424-1.1212-2.2424a1.5644 1.5644 0 0 1 0-1.3977l1.1212-2.2424-1.1212-2.2425a1.5644 1.5644 0 0 1 0-1.3977l1.1212-2.2424-1.1212-2.2424a1.5631 1.5631 0 0 1 0-1.3971l1.1212-2.243-1.1212-2.2419a1.5644 1.5644 0 0 1 0-1.3977l1.1212-2.2424-1.1212-2.2424a1.5644 1.5644 0 0 1 0-1.3977l.9668-1.9336-2.8186-2.8192-1.9342.9668a1.5631 1.5631 0 0 1-1.3971 0l-2.2424-1.1212-2.2431 1.1212a1.5612 1.5612 0 0 1-1.3971 0l-2.2424-1.1212-2.2424 1.1212a1.5644 1.5644 0 0 1-1.3977 0l-2.2424-1.1212-2.2425 1.1212a1.5625 1.5625 0 0 1-1.3977 0l-2.2418-1.1212-2.2424 1.1212a1.5625 1.5625 0 0 1-1.3977 0l-2.2424-1.1212-2.2425 1.1212a1.5644 1.5644 0 0 1-1.3977 0l-2.2424-1.1212-2.2424 1.1212a1.5625 1.5625 0 0 1-1.3977 0l-1.9336-.9668L4.463 34.158l.9668 1.9336c.2203.44.2203.9576 0 1.3977l-1.1212 2.2424 1.1212 2.2424a1.5603 1.5603 0 0 1 0 1.3977l-1.1212 2.2419 1.1212 2.243a1.559 1.559 0 0 1 0 1.3971l-1.1212 2.2424 1.1212 2.2424a1.5603 1.5603 0 0 1 0 1.3977l-1.1212 2.2425 1.1212 2.2424a1.5603 1.5603 0 0 1 0 1.3977l-1.1212 2.2424 1.1212 2.2424a1.5605 1.5605 0 0 1 0 1.3978l-1.1212 2.2418 1.1212 2.2424a1.5603 1.5603 0 0 1 0 1.3977L4.463 74.717l2.8192 2.8192 1.9336-.9668a1.5644 1.5644 0 0 1 1.3977 0l2.2424 1.1212 2.2424-1.1212a1.5644 1.5644 0 0 1 1.3977 0l2.2425 1.1212 2.2424-1.1212a1.5631 1.5631 0 0 1 1.3971 0l2.243 1.1212 2.2424-1.1212a1.5606 1.5606 0 0 1 .6983-.1648c.2398 0 .4791.0549.6988.1648l2.2431 1.1212 2.2424-1.1212a1.5631 1.5631 0 0 1 1.3971 0l2.2424 1.1212 2.2424-1.1212a1.5644 1.5644 0 0 1 1.3977 0l2.2425 1.1212 2.2424-1.1212a1.5631 1.5631 0 0 1 1.3971 0l1.9342.9668 2.8192-2.8192zm14.5947-13.4375l-.9668-1.9336a1.5644 1.5644 0 0 1 0-1.3977l1.1212-2.2424-1.1212-2.2418a1.5644 1.5644 0 0 1 0-1.3977l.7715-1.543.0006-.0018c.0002-.0003.0008-.0012.0012-.0012l.3479-.6964-1.1212-2.2425a1.5644 1.5644 0 0 1 0-1.3977l1.1212-2.2424-1.1212-2.2424a1.5631 1.5631 0 0 1 0-1.3971l1.1212-2.2431-1.1212-2.2418a1.5644 1.5644 0 0 1 0-1.3977l1.1212-2.2424-1.1212-2.2424a1.5644 1.5644 0 0 1 0-1.3977l1.1212-2.2425-1.1212-2.2424a1.5631 1.5631 0 0 1 0-1.3971l.9668-1.9342-2.8192-2.8192-1.9336.9668a1.5612 1.5612 0 0 1-1.3971 0l-2.243-1.1212-2.2425 1.1212a1.5631 1.5631 0 0 1-1.3971 0l-2.2424-1.1212-2.243 1.1212a1.5612 1.5612 0 0 1-1.3971 0l-2.2424-1.1212-2.2425 1.1212a1.5625 1.5625 0 0 1-1.3977 0l-2.2424-1.1212-2.2424 1.1212a1.5644 1.5644 0 0 1-1.3977 0l-2.2418-1.1212-2.2431 1.1212a1.5612 1.5612 0 0 1-1.3971 0l-2.2424-1.1212-2.2424 1.1212a1.5644 1.5644 0 0 1-1.3977 0l-1.9336-.9668-2.8192 2.8192.9668 1.9342a1.5631 1.5631 0 0 1 0 1.3971l-1.1212 2.2424.9863 1.9727 1.7895.8948 2.2425-1.1212a1.56 1.56 0 0 1 1.3977 0l2.2418 1.1212 2.243-1.1212a1.5606 1.5606 0 0 1 1.3971 0l2.2424 1.1212 2.2425-1.1212a1.56 1.56 0 0 1 1.3977 0l2.2424 1.1212 2.2424-1.1212a1.5618 1.5618 0 0 1 1.3977 0l2.2424 1.1212 2.2419-1.1212a1.5633 1.5633 0 0 1 1.8042.2923l4.4116 4.4116a1.5625 1.5625 0 0 1 .2923 1.8036l-1.1212 2.2424 1.1212 2.2431a1.5631 1.5631 0 0 1 0 1.3971l-1.1212 2.2424 1.1212 2.2424a1.5644 1.5644 0 0 1 0 1.3977l-1.1212 2.2424 1.1212 2.2425a1.5644 1.5644 0 0 1 0 1.3977l-1.1212 2.2418 1.1212 2.243a1.5631 1.5631 0 0 1 0 1.3971L52.8381 60.32l1.1212 2.2425a1.543 1.543 0 0 1 .1367.4144c.1801.0201.3577.072.5243.155l2.2425 1.1212 2.2424-1.1212a1.5644 1.5644 0 0 1 1.3977 0l1.9336.9668 2.8192-2.8192z" stroke="#fff" stroke-width=".5"/><path d="M47.1765 2.5632c0 .8625-.7001 1.5625-1.5625 1.5625-.863 0-1.5631-.7-1.5631-1.5625 0-.863.6989-1.5625 1.5619-1.5625.8624 0 1.5637.6995 1.5637 1.5625z" stroke="#fff" stroke-width=".5"/></svg>