<svg width="75" height="75" viewBox="0 0 75 75" fill="none" xmlns="http://www.w3.org/2000/svg"><g clip-path="url(#clip0)" fill="#5591B3"><path d="M71.4244 43.9298H70.302V33.8202c0-1.6005-.7966-3.0176-2.0131-3.8786v-1.3765c0-1.9968-1.6244-3.6211-3.6211-3.6211h-.8381l3.2064-4.7051c1.0748-1.5771.6661-3.7346-.9109-4.8095L44.3677.6022c-.7639-.5207-1.6847-.713-2.5935-.5405-.9084.1721-1.6954.6876-2.216 1.4516L20.7787 29.0704h-5.2258l1.2608-12.7631c.0142-.1439.1076-.2686.238-.3176 1.6244-.6125 3.0321-1.7562 3.9637-3.2205.0734-.1153.2118-.1812.3551-.1667l8.1965.8098c.5877.057 1.1105-.3711 1.1685-.9585.0581-.5874-.371-1.1105-.9584-1.1685l-8.1965-.8097c-.9514-.0932-1.8588.3452-2.3685 1.1462-.685 1.0767-1.7201 1.9175-2.9143 2.3678-.899.3389-1.5163 1.1464-1.6112 2.1074l-1.2815 12.9733h-1.3627l1.9939-20.1861c.0718-.7266.7203-1.2604 1.4477-1.1876l16.5636 1.6362c.5874.0567 1.1105-.371 1.1685-.9584.058-.5874-.371-1.1105-.9584-1.1685L15.6941 5.5697c-1.899-.1874-3.5972 1.205-3.7849 3.1042L10.302 24.944H7.565c-1.9966 0-3.6212 1.6243-3.6212 3.6211v.9389c-1.6334.7521-2.7707 2.4033-2.7707 4.3162v36.4299c0 2.6192 2.1308 4.7499 4.75 4.7499h59.629c2.6191 0 4.7499-2.1307 4.7499-4.7499V60.1407h1.1224c1.3248 0 2.4025-1.0777 2.4025-2.4024v-11.406c.0001-1.3248-1.0777-2.4025-2.4025-2.4025zm-6.7566-16.8483c.8182-.0002 1.4837.6655 1.4837 1.4837v.5445a4.7627 4.7627 0 0 0-.5994-.0391h-4.5344l1.3554-1.9891h2.2947zM41.3243 2.7169a1.3161 1.3161 0 0 1 .8477-.5553 1.3151 1.3151 0 0 1 .992.2067l21.7575 14.8271c.6032.4112.7597 1.2365.3486 1.8397l-6.8387 10.035h-1.6413l3.3529-4.9199c.5438-.7979.5886-1.8134.1166-2.6502-.6272-1.1118-.8815-2.421-.716-3.6864.1231-.9415-.2912-1.8605-1.081-2.3987L47.1835 7.7285c-.7899-.5383-1.7969-.5877-2.628-.1287-1.117.6167-2.4284.8588-3.6926.6819-.9375-.1316-1.8883.2918-2.424 1.0776l-13.4325 19.711h-1.6412L41.3243 2.7169zm.4707 18.1481c-4.654 0-8.4743 3.6288-8.7856 8.2053h-5.4168L40.2047 10.563h.0002c.0716-.1053.1904-.168.3124-.168a.3627.3627 0 0 1 .0488.0034c1.7195.2405 3.5029-.0885 5.0222-.9274.1196-.0662.2731-.0567.3914.0238l11.2792 7.6865c.1181.0806.183.22.1654.3554-.2252 1.721.1208 3.5014.9738 5.0134.0684.1215.0601.277-.0211.3964l-4.173 6.1236h-3.623c-.3116-4.5763-4.1318-8.2051-8.786-8.2051zm6.6427 8.2054H35.1523c.3062-3.3968 3.1676-6.0679 6.6427-6.0679 3.4752-.0002 6.3367 2.6711 6.6427 6.0679zm-42.3565-.5053c0-.8183.6655-1.4839 1.4837-1.4839h2.526l-.1964 1.9891H6.0812v-.5052zm-2.7708 5.2551c0-1.4405 1.172-2.6126 2.6127-2.6126h59.629c1.4407 0 2.6126 1.1721 2.6126 2.6126v2.9654H3.3105v-2.9654zm64.8543 36.4299c0 1.4406-1.1719 2.6126-2.6126 2.6126H5.9231c-1.4406 0-2.6126-1.172-2.6126-2.6126v-2.9654h5.763c.5903 0 1.0685-.4784 1.0685-1.0686 0-.5902-.4784-1.0686-1.0686-1.0686h-5.763V38.923h64.8543v5.0068H58.0035c-3.2016 0-5.9748 1.8662-7.291 4.5675-.0044.0091-.0094.0179-.0139.027-.0111.023-.0208.0469-.0317.07a8.072 8.072 0 0 0-.4038 1.0333l-.0009.003a8.0773 8.0773 0 0 0-.3641 2.4046c0 4.4694 3.636 8.1055 8.1052 8.1055h10.1612v5.0068H15.9163c-.5903 0-1.0686.4784-1.0686 1.0686 0 .5902.4784 1.0686 1.0686 1.0686h52.2484v2.9654zm3.525-12.5119a.2655.2655 0 0 1-.2653.2651H58.0038c-2.2625 0-4.235-1.2655-5.2468-3.1257a5.881 5.881 0 0 1-.3586-.7925 5.9381 5.9381 0 0 1-.3627-2.0499c0-.7198.1282-1.4103.3627-2.0499a6.0145 6.0145 0 0 1 .2266-.5352c.042-.0869.086-.1727.132-.2572 1.0118-1.8603 2.9843-3.1257 5.2468-3.1257h13.4206a.2655.2655 0 0 1 .2653.2651v11.4059z"/><path d="M58.2539 47.6993c-2.3909 0-4.3359 1.9452-4.3359 4.336 0 2.3907 1.945 4.3358 4.3359 4.3358 2.3909 0 4.3359-1.9451 4.3359-4.3358 0-2.3908-1.945-4.336-4.3359-4.336zm0 6.5344c-1.2123 0-2.1986-.9863-2.1986-2.1984 0-1.2122.9863-2.1986 2.1986-2.1986s2.1986.9863 2.1986 2.1986-.9863 2.1984-2.1986 2.1984z"/></g><defs><clipPath id="clip0"><path fill="#fff" d="M0 0h75v75H0z"/></clipPath></defs></svg>